<svg id="Layer_1" data-name="Layer 1" xmlns="http://www.w3.org/2000/svg" viewBox="0 0 960 220"><defs><style>.cls-1{fill:#ffd835;}.cls-2{fill:#010101;}</style></defs><path class="cls-1" d="M245.88,39.32h-26.5A4.42,4.42,0,0,1,215,34.91V8.41A4.41,4.41,0,0,0,210.55,4H38.28L2.94,39.32V176.26a4.42,4.42,0,0,0,4.42,4.42h26.5a4.42,4.42,0,0,1,4.42,4.42v26.5A4.41,4.41,0,0,0,42.69,216H215l35.34-35.33V43.74A4.42,4.42,0,0,0,245.88,39.32ZM215,176.26a4.41,4.41,0,0,1-4.41,4.42H42.69a4.41,4.41,0,0,1-4.41-4.42V43.74a4.41,4.41,0,0,1,4.41-4.42H210.55A4.41,4.41,0,0,1,215,43.74Z"/><path class="cls-2" d="M427.77,178.74a73,73,0,0,1-28-5.31,69.94,69.94,0,0,1-37.95-37.07,67.71,67.71,0,0,1-5.5-27.33,67.7,67.7,0,0,1,5.5-27.32,70,70,0,0,1,37.95-37.08,73.17,73.17,0,0,1,28-5.31,73.92,73.92,0,0,1,28.09,5.31A70,70,0,0,1,478.65,59.5a69.48,69.48,0,0,1,0,99.07,69.68,69.68,0,0,1-22.79,14.86A73.73,73.73,0,0,1,427.77,178.74Zm0-25.68a41.84,41.84,0,0,0,17-3.38,42.86,42.86,0,0,0,13.52-9.27,42.34,42.34,0,0,0,9.07-14,47.92,47.92,0,0,0,0-34.85,42.39,42.39,0,0,0-22.59-23.17,42,42,0,0,0-17-3.38A41.44,41.44,0,0,0,411,68.39a42.45,42.45,0,0,0-22.6,23.17,45.09,45.09,0,0,0-3.28,17.28,46.32,46.32,0,0,0,3.28,17.57A42.21,42.21,0,0,0,411,149.68,41.27,41.27,0,0,0,427.77,153.06Z"/><path class="cls-2" d="M514.85,216V76h26.07v8.31a45.11,45.11,0,0,1,28.58-9.66,49.38,49.38,0,0,1,25.88,7,52.28,52.28,0,0,1,18.44,18.64,50.73,50.73,0,0,1,6.85,26.16,50.14,50.14,0,0,1-6.95,26.17,51.52,51.52,0,0,1-45,25.39,51.12,51.12,0,0,1-14.48-2,49.07,49.07,0,0,1-12.94-5.88V216Zm50.4-60.44a29.24,29.24,0,0,0,15-3.86,28.5,28.5,0,0,0,14.38-25.3,29.23,29.23,0,0,0-3.86-15A27.73,27.73,0,0,0,580.22,101a29.88,29.88,0,0,0-15-3.76,36.09,36.09,0,0,0-13.42,2.41,28.33,28.33,0,0,0-10.52,7.24v39.2a29.43,29.43,0,0,0,10.52,6.95A35.67,35.67,0,0,0,565.25,155.57Z"/><path class="cls-2" d="M684,178.55a54.45,54.45,0,0,1-27.32-7,52.57,52.57,0,0,1-19.41-18.73,50,50,0,0,1-7.14-26.46,51.36,51.36,0,0,1,25.48-45.18,50.68,50.68,0,0,1,26.27-7,46.75,46.75,0,0,1,25.68,7.14,50.74,50.74,0,0,1,17.67,19.31,57.94,57.94,0,0,1,6.47,27.61v7H657.17a30.15,30.15,0,0,0,5.7,10.81,27.13,27.13,0,0,0,9.84,7.53,29.87,29.87,0,0,0,12.65,2.7,35.31,35.31,0,0,0,12.46-2.12,28.13,28.13,0,0,0,9.75-6L725,164.07A60.4,60.4,0,0,1,684,178.55Zm-27.23-62.18h48.86a25.88,25.88,0,0,0-4.93-10.52,26.64,26.64,0,0,0-8.49-7.15,23,23,0,0,0-10.91-2.6,24.72,24.72,0,0,0-11.2,2.51,23.25,23.25,0,0,0-8.4,7A29.65,29.65,0,0,0,656.78,116.37Z"/><path class="cls-2" d="M746,176.62V76h26.45v8.31q11.4-10.23,28.2-10.24A41.17,41.17,0,0,1,821.4,79.2a36.28,36.28,0,0,1,14,14.1,42.18,42.18,0,0,1,5,21v62.37H814V118.11q0-9.85-5.6-15.54t-15.26-5.7a26.42,26.42,0,0,0-12,2.61,23.53,23.53,0,0,0-8.69,7.43v69.71Z"/><path class="cls-2" d="M854.17,93.05V39.32H880.8a23,23,0,0,1,9.71,1.92,15.77,15.77,0,0,1,6.56,5.34,13.38,13.38,0,0,1,2.38,7.86,12.23,12.23,0,0,1-1.65,6.18,15.13,15.13,0,0,1-4.49,4.88,15.72,15.72,0,0,1,5.72,5,11.66,11.66,0,0,1,2.11,6.76,14.5,14.5,0,0,1-2.38,8.25,15.78,15.78,0,0,1-6.68,5.56,23.44,23.44,0,0,1-10,2Zm13.2-32.31H880a6.81,6.81,0,0,0,4.6-1.46,4.81,4.81,0,0,0,1.69-3.84,4.76,4.76,0,0,0-1.69-3.87,6.9,6.9,0,0,0-4.6-1.42H867.37Zm0,21.49h13.74A7.22,7.22,0,0,0,886,80.69a5.65,5.65,0,0,0,0-8.29,7.27,7.27,0,0,0-4.87-1.53H867.37Z"/><path class="cls-2" d="M907.51,93.05V39.32h28.32a19.15,19.15,0,0,1,9.4,2.27,16.78,16.78,0,0,1,8.87,15.16,16.39,16.39,0,0,1-2.38,8.71,16.91,16.91,0,0,1-6.53,6.1,19.49,19.49,0,0,1-9.36,2.22H920.71V93.05Zm13.2-30.16h13.58A6.53,6.53,0,0,0,939,61.2a5.82,5.82,0,0,0,1.76-4.38A6,6,0,0,0,939,52.33a6.42,6.42,0,0,0-4.69-1.72H920.71Z"/></svg>