<svg id="Layer_1" data-name="Layer 1" xmlns="http://www.w3.org/2000/svg" viewBox="0 0 250 220"><defs><style>.cls-1{fill:#ffd835;}</style></defs><path class="cls-1" d="M245.58,39.32h-26.5a4.42,4.42,0,0,1-4.42-4.42V8.41A4.41,4.41,0,0,0,210.25,4H38L2.64,39.32V176.26a4.41,4.41,0,0,0,4.42,4.41h26.5A4.42,4.42,0,0,1,38,185.1v26.5A4.41,4.41,0,0,0,42.39,216H214.66L250,180.67V43.74A4.42,4.42,0,0,0,245.58,39.32ZM214.66,176.26a4.4,4.4,0,0,1-4.41,4.41H42.39A4.41,4.41,0,0,1,38,176.26V43.74a4.42,4.42,0,0,1,4.42-4.42H210.25a4.41,4.41,0,0,1,4.41,4.42Z"/></svg>