<svg version="1.0" xmlns="http://www.w3.org/2000/svg" width="192" height="48" viewBox="0 0 1873.000000 393.000000" preserveAspectRatio="xMidYMid meet">

<g transform="translate(0.000000,393.000000) scale(0.100000,-0.100000)" fill="#000000" stroke="none">
<defs>
    <style>
      .cls-1 {
        fill: #222;
      }

      .cls-1, .cls-2,{
        fill-rule: evenodd;
      }

      .cls-2 {
        fill: #0088cc;
      }

      }
    </style>
  </defs>

<path class="cls-2 icon-path" d="M615 3793 c-153 -32 -281 -149 -327 -297 -18 -58 -19 -126 -25 -1477 -7 -1508 -7 -1484 41 -1593 27 -62 113 -158 171 -191 23 -14 68 -34 100 -45 57 -20 83 -20 1511 -20 1397 0 1455 1 1513 19 163 51 281 187 311 359 9 51 10 408 3 1497 l-9 1430 -24 59 c-29 73 -120 173 -193 215 
-112 64 -46 61 -1595 60 -1208 -1 -1417 -3 -1477 -16z m2842 -157 c107 -6 200 -74 261 -189 l27 -52 0 -1400 0 -1400 -29 -60 c-35 -70 -97 -133 -163 -166 l-48 -24 -1415 0 -1415 0 -46 23 c-74 36 -125 87 -161 160 l-33 67 -3 1385 -2 1385 21 57 c39 106 135 190 240 212 46 9 367 11 1382 9 727 -2 1350 -5 1384 -7z"></path>
<path class="cls-2 icon-path" d="M773 3361 c-76 -35 -70 67 -78 -1346 -5 -915 -4 -1281 4 -1310 6 -23 25 -54 41 -70 l31 -30 570 -3 569 -2 0 215 0 215 -388 0 -389 0 -7 955 c-4 525 -4 959 -1 965 9 14 1921 14 1930 0 3 -6 3 -440 -1 -965 l-7 -955 -389 0 -388 0 0 -215 0 -215 569 2 570 3 31 30 c16 16 35 47 41 70 
8 29 9 395 4 1305 -8 1413 -2 1312 -79 1350 -42 20 -53 20 -1317 20 -1230 0 -1275 -1 -1316 -19z"></path>
<path class="cls-2 icon-path" d="M1530 1985 l0 -555 561 0 562 0 -4 555 -4 555 -557 0 -558 0 0 -555z"></path>
<path class="cls-1 text-path" d="M17022 3315 c-249 -54 -355 -217 -369 -567 l-6 -148 -94 0 c-52 0 -103 -4 -113 -10 -52 -28 -52 -292 0 -320 10 -6 62 -10 114 -10 l96 0 0 -602 c0 -332 4 -608 8 -614 15 -24 57 -36 141 -41 129 -8 218 3 247 32 l24 24 0 601 0 600 280 0 280 0 0 -437 c0 -475 5 -527 55 -629 31 -64 
94 -128 155 -159 26 -13 85 -31 131 -41 136 -27 342 -5 409 44 36 27 52 98 47 202 -7 132 -15 140 -103 110 -122 -42 -212 -19 -254 65 l-25 50 -3 398 -3 397 169 0 c119 0 173 4 184 13 50 38 51 278 2 314 -13 9 -65 13 -186 13 l-168 0 0 174 c0 190 -2 198 -58 213 -52 15 -284 9 -317 -7 l-30 -15 -3 -183 -2 -182 -287 
0 -286 0 5 125 c5 104 10 133 29 172 46 92 127 115 259 74 61 -19 62 -19 81 0 16 16 19 34 19 133 0 132 -7 159 -50 181 -79 41 -261 55 -378 30z"></path>
<path class="cls-1 text-path" d="M10005 3316 c-5 -3 -27 -7 -47 -11 -71 -11 -68 9 -68 -446 0 -225 -3 -409 -6 -409 -3 0 -29 20 -57 46 -100 87 -246 144 -374 144 -156 0 -302 -59 -409 -165 -165 -164 -231 -384 -221 -739 4 -152 9 -197 30 -280 39 -147 87 -237 173 -323 116 -118 260 -171 434 -160 155 10 273 63 416
185 l74 63 0 -90 c0 -87 1 -91 27 -108 40 -26 256 -26 296 0 l27 17 0 1121 0 1120 -37 16 c-35 15 -232 29 -258 19z m-340 -1055 c31 -15 84 -58 138 -112 l87 -88 0 -250 0 -249 -54 -64 c-97 -113 -181 -167 -275 -175 -78 -7 -135 11 -188 60 -84 77 -121 185 -130 377 -13 274 73 472 223 520 49 16 145 6 199 -19z"></path>
<path class="cls-1 text-path" d="M12631 3310 c-24 -5 -52 -17 -62 -26 -18 -16 -19 -58 -19 -1125 0 -993 2 -1109 16 -1123 25 -26 61 -31 206 -31 123 0 139 2 165 21 l28 21 3 1094 c1 602 0 1104 -3 1116 -9 39 -59 56 -180 59 -60 2 -130 -1 -154 -6z"></path>
<path class="cls-1 text-path" d="M5038 2624 c-104 -25 -238 -106 -328 -198 -24 -25 -48 -46 -52 -46 -4 0 -8 44 -8 99 l0 99 -32 13 c-22 9 -73 14 -148 14 -94 0 -121 -3 -143 -18 l-27 -17 0 -758 c0 -416 4 -762 8 -768 15 -24 57 -36 141 -41 129 -8 218 3 247 32 l24 24 0 502 0 502 88 86 c48 48 105 96 127 106 96 44 197
26 260 -48 69 -80 69 -83 73 -655 l3 -512 32 -17 c44 -24 296 -26 342 -3 l30 15 3 508 2 508 82 85 c98 101 148 133 221 141 116 12 192 -45 240 -182 7 -19 13 -219 17 -545 l5 -515 30 -15 c43 -21 297 -21 340 0 l30 15 0 580 c0 523 -2 586 -18 645 -54 201 -179 326 -366 366 -201 42 -387 -17 -557 -179 -47 -44 -86 -78
-88 -76 -1 2 -14 25 -29 50 -96 168 -333 256 -549 203z"></path>
<path class="cls-1 text-path" d="M7638 2630 c-271 -43 -453 -168 -561 -385 -87 -175 -117 -414 -82 -650 30 -196 86 -319 199 -430 84 -83 177 -133 311 -167 127 -32 381 -31 500 0 335 90 527 339 554 720 36 489 -143 802 -509 892 -97 24 -319 35 -412 20z m294 -349 c93 -44 163 -149 189 -282 19 -94 16 -319 -5 -403 -23 
-98 -71 -182 -128 -227 -67 -52 -107 -64 -223 -64 -89 0 -106 3 -157 28 -128 63 -185 188 -195 427 -13 299 71 477 250 536 64 21 210 13 269 -15z"></path>
<path class="cls-1 text-path" d="M13738 2625 c-274 -52 -438 -228 -438 -470 0 -126 43 -230 129 -315 65 -64 151 -112 315 -175 147 -57 186 -77 225 -115 56 -57 60 -151 8 -208 -49 -53 -93 -67 -212 -67 -124 0 -188 17 -327 86 -89 45 -112 48 -130 17 -19 -33
-17 -224 2 -263 41 -82 313 -155 530 -142 311 20 520 165 569 395 24 117 6 252 -46 342 -63 107 -158 170 -402 265 -213 82 -266 125 -266 213 0 57 28 101 82 128 30 15 60 19 143 19 115 0 158 -11 293 -73 90 -41 106 -38 120 24 11 50 2 192 -14 228 -40 87 -373 150 -581 111z"></path>
<path class="cls-1 text-path" d="M15308 2630 c-271 -43 -453 -168 -561 -385 -87 -175 -117 -414 -82 -650 30 -196 86 -319 199 -430 84 -83 177 -133 311 -167 127 -32 381 -31 500 0 335 90 527 339 554 720 36 489 -143 802 -509 892 -97 24 -319 35 -412 20z m294 -349 c93 -44 163 -149 189 -282 19 -94 16 -319 -5 -403 -23 
-98 -71 -182 -128 -227 -67 -52 -107 -64 -223 -64 -89 0 -106 3 -157 28 -128 63 -185 188 -195 427 -13 299 71 477 250 536 64 21 210 13 269 -15z"></path>
<path class="cls-1 text-path" d="M10800 2604 c-50 -10 -80 -27 -86 -49 -3 -12 -4 -267 -1 -566 4 -604 6 -622 72 -755 64 -131 178 -218 327 -248 218 -45 411 18 597 193 30 28 56 51 58 51 2 0 3 -43 3 -95 0 -92 1 -95 27 -112 40 -26 256 -26 296 0 l27 18 -2 767 -3 767 -30 15 c-43 21 -297 21 -340 0 l-30 -15 -5 -512 -5
-513 -80 -80 c-125 -126 -216 -161 -329 -128 -54 16 -118 81 -142 144 -17 45 -19 90 -24 563 l-5 514 -27 20 c-23 17 -45 20 -150 23 -68 1 -134 0 -148 -2z"></path>
</g>
</svg>
