<svg id="Layer_1" data-name="Layer 1" xmlns="http://www.w3.org/2000/svg" viewBox="0 0 114.28 34.77"><defs><style>.cls-1{fill:#0f0505;}</style></defs><path class="cls-1" d="M111.77,106.5V113l-11.49,6.63h0l-.38.22h0a4.92,4.92,0,0,1-4.48,0h0l-.41-.25,0,0L83.5,113V106.5L95,113.1l0,0,.41.25h0a4.92,4.92,0,0,0,4.48,0h0l.38-.22h0Z" transform="translate(-83.5 -87.49)"/><path class="cls-1" d="M111.77,96.7v6.53l-11.49,6.64h0l-.38.21h0a4.92,4.92,0,0,1-4.48,0h0l-.41-.24,0,0L83.5,103.23V96.7L95,103.31l0,0,.41.24h0a4.92,4.92,0,0,0,4.48,0h0l.38-.21,0,0Z" transform="translate(-83.5 -87.49)"/><path class="cls-1" d="M109,95.07l-5.66,3.26-3,1.74h0l-.38.22h0a4.84,4.84,0,0,1-4.48,0h0l-.41-.24,0,0-3-1.71-5.66-3.26L92,91.8l3-1.71,0,0,.41-.24h0a4.92,4.92,0,0,1,4.48,0h0l.38.21h0l3,1.74Z" transform="translate(-83.5 -87.49)"/><path class="cls-1" d="M122.38,91.22a1.11,1.11,0,0,0-.43.92,1,1,0,0,0,.52.92,9.16,9.16,0,0,0,2.4.8,6.8,6.8,0,0,1,2.92,1.39,3.45,3.45,0,0,1,1,2.7,3.57,3.57,0,0,1-1.33,2.89,5.36,5.36,0,0,1-3.51,1.1,8.12,8.12,0,0,1-5.65-2.32l1.76-2.16a6.25,6.25,0,0,0,4,1.88,2,2,0,0,0,1.28-.36,1.12,1.12,0,0,0,.46-.94,1.1,1.1,0,0,0-.49-.94,6.29,6.29,0,0,0-2-.71A8.42,8.42,0,0,1,120,95a3.37,3.37,0,0,1-1.07-2.76,3.42,3.42,0,0,1,1.35-2.9,5.44,5.44,0,0,1,3.37-1,8.15,8.15,0,0,1,2.65.45A7.23,7.23,0,0,1,128.59,90l-1.5,2.15a5.79,5.79,0,0,0-3.55-1.3A1.78,1.78,0,0,0,122.38,91.22Z" transform="translate(-83.5 -87.49)"/><path class="cls-1" d="M135.94,99.43A3.25,3.25,0,0,0,138.49,98l1.68,1.89a5.85,5.85,0,0,1-4.25,2,5.52,5.52,0,0,1-3.87-1.44,5.34,5.34,0,0,1,0-7.58,5.42,5.42,0,0,1,3.79-1.47,6,6,0,0,1,2.22.46,5.65,5.65,0,0,1,2,1.34l-1.48,1.93a3.48,3.48,0,0,0-1.2-.91A3.44,3.44,0,0,0,136,94a2.72,2.72,0,0,0-1.91.73,2.91,2.91,0,0,0,0,4A2.71,2.71,0,0,0,135.94,99.43Z" transform="translate(-83.5 -87.49)"/><path class="cls-1" d="M147.41,94.12a2.13,2.13,0,0,0-1.89.9,4.05,4.05,0,0,0-.63,2.37v4.4h-2.83V91.62h2.83V93a4.87,4.87,0,0,1,1.37-1.06,3.85,3.85,0,0,1,1.68-.46l0,2.67Z" transform="translate(-83.5 -87.49)"/><path class="cls-1" d="M150.06,90.33a1.66,1.66,0,0,1,1.18-2.84,1.64,1.64,0,0,1,1.19.48,1.69,1.69,0,0,1,0,2.36,1.64,1.64,0,0,1-1.19.48A1.61,1.61,0,0,1,150.06,90.33Zm2.6,11.46h-2.83V91.62h2.83Z" transform="translate(-83.5 -87.49)"/><path class="cls-1" d="M161.2,91.45a4.32,4.32,0,0,1,3.23,1.45,5.15,5.15,0,0,1,1.38,3.71,5.38,5.38,0,0,1-1.41,3.8,4.31,4.31,0,0,1-3.23,1.53,3.65,3.65,0,0,1-3-1.49v1.34h-2.84v-14h2.84v5A3.88,3.88,0,0,1,161.2,91.45Zm-3.06,5.27a3,3,0,0,0,.69,2,2.16,2.16,0,0,0,1.67.78,2.29,2.29,0,0,0,1.72-.78,2.82,2.82,0,0,0,.74-2,3,3,0,0,0-.72-2.06,2.18,2.18,0,0,0-1.72-.83,2.13,2.13,0,0,0-1.69.82A3.09,3.09,0,0,0,158.14,96.72Z" transform="translate(-83.5 -87.49)"/><path class="cls-1" d="M176.74,100.32a5.7,5.7,0,0,1-4,1.62,5.37,5.37,0,0,1-3.83-1.42,5.06,5.06,0,0,1-1.51-3.83,5,5,0,0,1,1.54-3.82,5.49,5.49,0,0,1,7.2-.15,4.35,4.35,0,0,1,1.47,3.48v1.51h-7.41a2,2,0,0,0,.87,1.36,2.81,2.81,0,0,0,1.66.53,3.25,3.25,0,0,0,2.46-1Zm-2.72-6a2.14,2.14,0,0,0-1.43-.49,2.54,2.54,0,0,0-1.54.51,1.92,1.92,0,0,0-.81,1.38h4.46A2,2,0,0,0,174,94.29Z" transform="translate(-83.5 -87.49)"/><path class="cls-1" d="M122.38,107.68a1.11,1.11,0,0,0-.43.92,1.05,1.05,0,0,0,.52.92,10,10,0,0,0,2.4.8,6.69,6.69,0,0,1,2.92,1.39,3.45,3.45,0,0,1,1,2.7,3.54,3.54,0,0,1-1.33,2.88A5.31,5.31,0,0,1,124,118.4a8.13,8.13,0,0,1-5.65-2.33l1.76-2.15a6.23,6.23,0,0,0,4,1.87,2,2,0,0,0,1.28-.35,1.18,1.18,0,0,0,0-1.89,6.57,6.57,0,0,0-2-.71,8.43,8.43,0,0,1-3.37-1.42,3.93,3.93,0,0,1,.28-5.66,5.44,5.44,0,0,1,3.37-1,8.15,8.15,0,0,1,2.65.45,7,7,0,0,1,2.31,1.29l-1.5,2.15a5.79,5.79,0,0,0-3.55-1.3A1.73,1.73,0,0,0,122.38,107.68Z" transform="translate(-83.5 -87.49)"/><path class="cls-1" d="M132.59,122.26a4.11,4.11,0,0,1-2.81-1.22l1.28-2.09a2.15,2.15,0,0,0,1.47.7.84.84,0,0,0,.69-.39,1.42,1.42,0,0,0,.28-.82q0-.43-3.93-10.36h3l2.48,6.33,2.47-6.33h3l-4.73,12a3.42,3.42,0,0,1-1.29,1.62A3.55,3.55,0,0,1,132.59,122.26Z" transform="translate(-83.5 -87.49)"/><path class="cls-1" d="M149.45,115.08a3,3,0,0,1-1.11,2.41,4.23,4.23,0,0,1-2.8.91,7.58,7.58,0,0,1-2.37-.41,7.08,7.08,0,0,1-2.21-1.2l1.25-1.77a5.43,5.43,0,0,0,3.38,1.22,1.55,1.55,0,0,0,.87-.21.66.66,0,0,0,.32-.58.81.81,0,0,0-.44-.66,5.22,5.22,0,0,0-1.28-.57,11.17,11.17,0,0,1-1.29-.45,7.52,7.52,0,0,1-1-.55,2.34,2.34,0,0,1-1.15-2.12,2.77,2.77,0,0,1,1.13-2.3,4.63,4.63,0,0,1,2.93-.89,6.36,6.36,0,0,1,3.59,1.21L148.2,111a4.68,4.68,0,0,0-2.64-.91c-.87,0-1.31.24-1.31.72a.68.68,0,0,0,.42.62,7.41,7.41,0,0,0,1.38.53c.64.21,1.1.36,1.37.47a6,6,0,0,1,1,.5A2.3,2.3,0,0,1,149.45,115.08Z" transform="translate(-83.5 -87.49)"/><path class="cls-1" d="M154.93,110.12v4.56a1.3,1.3,0,0,0,.3.91.94.94,0,0,0,.72.33,1.61,1.61,0,0,0,1.34-.71l1.06,2a4.07,4.07,0,0,1-2.79,1.21,3.38,3.38,0,0,1-3.48-3.59v-4.69h-1.19v-2h1.19v-3h2.85v3h2.46v2Z" transform="translate(-83.5 -87.49)"/><path class="cls-1" d="M168.67,116.77a5.67,5.67,0,0,1-4,1.63,5.34,5.34,0,0,1-3.82-1.43,5,5,0,0,1-1.51-3.82,4.92,4.92,0,0,1,1.54-3.82,5.14,5.14,0,0,1,3.63-1.42,5.26,5.26,0,0,1,3.57,1.27,4.36,4.36,0,0,1,1.46,3.47v1.52h-7.41a2.06,2.06,0,0,0,.87,1.36,2.81,2.81,0,0,0,1.66.53,3.26,3.26,0,0,0,2.46-1Zm-2.72-6a2.15,2.15,0,0,0-1.43-.5,2.56,2.56,0,0,0-1.54.51,1.92,1.92,0,0,0-.81,1.38h4.46A2,2,0,0,0,166,110.75Z" transform="translate(-83.5 -87.49)"/><path class="cls-1" d="M180.88,112.77v5.48H178v-5.56a3.26,3.26,0,0,0-.37-1.77,1.3,1.3,0,0,0-1.19-.57A2,2,0,0,0,175,111a2.41,2.41,0,0,0-.63,1.81v5.48h-2.84V108.08h2.84v1.15a3.5,3.5,0,0,1,2.68-1.32,2.93,2.93,0,0,1,1.75.57,3.79,3.79,0,0,1,1.18,1.38,4,4,0,0,1,1.58-1.44,4.3,4.3,0,0,1,2-.51,4,4,0,0,1,2.89,1.07,4.12,4.12,0,0,1,1.1,3.09v6.18h-2.86v-5.56c0-1.56-.57-2.34-1.72-2.34a2,2,0,0,0-1.47.61A2.41,2.41,0,0,0,180.88,112.77Z" transform="translate(-83.5 -87.49)"/><path class="cls-1" d="M197.77,115.08a3,3,0,0,1-1.1,2.41,4.27,4.27,0,0,1-2.81.91,7.52,7.52,0,0,1-2.36-.41,6.87,6.87,0,0,1-2.21-1.2l1.24-1.77a5.43,5.43,0,0,0,3.39,1.22,1.6,1.6,0,0,0,.87-.21.69.69,0,0,0,.32-.58.83.83,0,0,0-.45-.66,5.05,5.05,0,0,0-1.28-.57,12.75,12.75,0,0,1-1.29-.45,8.18,8.18,0,0,1-1-.55,2.34,2.34,0,0,1-1.15-2.12,2.8,2.8,0,0,1,1.13-2.3,4.63,4.63,0,0,1,2.93-.89,6.34,6.34,0,0,1,3.59,1.21L196.52,111a4.67,4.67,0,0,0-2.63-.91q-1.32,0-1.32.72a.68.68,0,0,0,.42.62,7.71,7.71,0,0,0,1.38.53c.64.21,1.1.36,1.37.47a5.65,5.65,0,0,1,1,.5A2.3,2.3,0,0,1,197.77,115.08Z" transform="translate(-83.5 -87.49)"/></svg>